<?xml version="1.0" encoding="UTF-8"?>
<svg id="Layer_1" xmlns="http://www.w3.org/2000/svg" version="1.1" viewBox="0 0 566.93 245">
  <!-- Generator: Adobe Illustrator 29.5.0, SVG Export Plug-In . SVG Version: 2.1.0 Build 137)  -->
  <defs>
    <style>
      .st0 {
        fill: #4d4d4d;
      }

      .st1 {
        fill: #fff;
      }

      .st2 {
        fill: #a11f11;
      }

      .st3 {
        fill: none;
      }

      .st4 {
        fill: red;
      }

      .st5 {
        fill: #851b0e;
      }

      .st6 {
        opacity: .2;
      }

      .st7 {
        fill: #1d1d1b;
      }

      .st8 {
        fill: #ca221a;
      }
    </style>
  </defs>
  <polyline class="st2" points="176.27 11.6 67.19 87.96 102.09 205.22 102.09 105.51 194.8 65.48"/>
  <path class="st3" d="M153.2,117.06c17.6-1.23,32.12-14.94,34.29-32.46.51-4.12.34-8.13-.42-11.93-.11-.57-.3-1.11-.54-1.61l-19.46,2.99c1.31,2.46,2.06,5.27,2.06,8.26,0,9.74-7.89,17.63-17.63,17.63s-17.63-7.89-17.63-17.63c0-1.09.1-2.16.29-3.2l-20.76,3.19c1.29,20.28,18.89,36.21,39.8,34.75Z"/>
  <g>
    <g>
      <path class="st1" d="M146.4,204.73h-7.25l-13.55-16.4-6.66,8.42v7.98h-6v-56.46h5.79v39.77l19.33-25.05h6.96l-15.89,21.02,17.28,20.72Z"/>
      <path class="st1" d="M155.99,204.73h-5.57v-56.46h5.57v56.46Z"/>
      <path class="st1" d="M167.78,158.01h-5.49v-9.74h5.49v9.74ZM167.78,204.73h-5.49v-41.74h5.49v41.74Z"/>
      <path class="st1" d="M189.17,205.61c-10.18,0-15.23-4.32-15.23-12.96v-44.31h5.64v14.57h9.59v5.2h-9.59v23.58c0,6.23,3.22,9.3,9.59,9.3v4.61Z"/>
      <path class="st1" d="M273.54,204.73h-5.42v-6.52c-4.54,5.2-10.11,7.69-16.7,7.47-5.79-.22-10.69-2.42-14.72-6.66-4.03-4.25-6.08-9.3-6.08-15.16s2.2-11.35,6.52-15.67c4.32-4.39,9.52-6.44,15.6-6.23,5.86.22,10.84,2.42,14.94,6.74,4.1,4.25,6.08,9.3,5.86,15.09v20.94ZM236.26,183.42c-.07,4.39,1.32,8.28,4.32,11.57,3,3.3,6.66,4.98,10.91,5.2,4.61.22,8.49-1.39,11.72-4.76,3.3-3.44,4.83-7.47,4.76-12.08-.07-4.39-1.68-8.13-4.69-11.28-3-3.15-6.66-4.69-10.91-4.69-4.47,0-8.2,1.54-11.35,4.69-3.15,3.15-4.69,6.88-4.76,11.35Z"/>
      <path class="st1" d="M316.23,204.73h-5.64v-24.39c0-3.52-1.32-6.52-3.88-9.08-2.56-2.56-5.49-3.81-8.93-3.81s-6.52,1.25-9.08,3.81c-2.56,2.56-3.81,5.57-3.81,9.08v24.39h-5.64v-23.8c0-5.42,1.76-9.89,5.27-13.47,3.52-3.59,7.91-5.42,13.26-5.42s9.67,1.83,13.18,5.42c3.51,3.59,5.27,8.06,5.27,13.47v23.8Z"/>
      <path class="st1" d="M365.81,184.08c.15,6-1.98,11.2-6.44,15.6-4.47,4.32-9.67,6.44-15.67,6.23-5.79-.15-10.77-2.34-14.79-6.59-4.03-4.25-6-9.3-6-15.16s2.2-11.35,6.52-15.67c4.32-4.39,9.52-6.52,15.53-6.3,6.15.22,11.28,2.71,15.38,7.4v-21.02h5.49v35.52ZM343.77,200.41c4.61.22,8.5-1.32,11.72-4.76,3.3-3.44,4.83-7.4,4.69-12.01-.07-4.39-1.68-8.13-4.69-11.28-3-3.15-6.59-4.69-10.91-4.69-4.39-.07-8.2,1.54-11.35,4.69-3.15,3.15-4.69,6.88-4.76,11.35-.07,4.39,1.39,8.28,4.39,11.57,3,3.3,6.59,4.98,10.91,5.13Z"/>
      <path class="st1" d="M413.93,191.03c-1.54,4.47-4.17,8.06-7.91,10.69-3.74,2.64-7.84,3.95-12.38,4.03-5.71.07-10.77-1.98-15.16-6.22-4.39-4.32-6.66-9.37-6.74-15.31-.15-6.22,2.05-11.64,6.59-16.11,4.61-4.54,9.96-6.66,16.18-6.3,5.57.37,10.4,2.64,14.5,6.88,3.95,4.17,5.93,8.86,5.93,14.06v3h-37.49c.44,4.17,2.2,7.69,5.35,10.4,3.15,2.71,6.81,4.1,11.06,4.03,6.59-.07,11.28-3.15,14.13-9.15h5.93ZM409.46,180.64c-.81-3.88-2.64-7.03-5.49-9.45-2.86-2.42-6.3-3.66-10.33-3.74-4.03-.07-7.54,1.17-10.55,3.59s-4.83,5.64-5.64,9.59h32Z"/>
      <path class="st1" d="M425.36,204.73h-5.86v-41.74h5.2v5.93c1.17-2.27,2.93-3.95,5.2-5.2,2.12-1.1,4.25-1.61,6.44-1.54v5.57c-2.56.07-4.69.81-6.3,2.12-1.61,1.32-2.71,2.49-3.3,3.44-.95,1.61-1.39,3.73-1.39,6.44v24.97Z"/>
      <path class="st1" d="M446.45,193.74c0,1.39.81,2.86,2.34,4.39,1.54,1.54,3.22,2.27,4.98,2.2,2.34-.07,4.17-.73,5.57-2.12,1.25-1.25,1.83-2.93,1.9-4.98.07-3.59-1.98-6-6.08-7.32l-4.91-1.54c-5.13-1.61-7.84-5.13-8.06-10.47-.15-3.22.95-6,3.22-8.28,2.34-2.27,5.13-3.51,8.42-3.66,2.86-.15,5.49.81,7.91,2.78,2.49,1.98,3.81,4.39,4.03,7.32l.07,1.24h-5.86v-.95c0-2.93-2.93-4.91-6.15-4.91-3.15.07-5.79,2.49-5.86,5.71-.22,3,1.61,5.13,5.35,6.37l4.83,1.61c5.56,1.9,8.57,5.64,8.93,11.13.29,3.74-1.02,7.03-3.95,9.81-2.93,2.71-6.3,3.95-10.11,3.73-3.51-.22-6.44-1.68-8.86-4.25-2.34-2.56-3.51-5.64-3.51-9.23h5.79v1.39Z"/>
      <path class="st1" d="M514.7,191.03c-1.54,4.47-4.17,8.06-7.91,10.69-3.74,2.64-7.84,3.95-12.38,4.03-5.71.07-10.77-1.98-15.16-6.22-4.39-4.32-6.66-9.37-6.74-15.31-.15-6.22,2.05-11.64,6.59-16.11,4.61-4.54,9.96-6.66,16.18-6.3,5.57.37,10.4,2.64,14.5,6.88,3.95,4.17,5.93,8.86,5.93,14.06v3h-37.49c.44,4.17,2.2,7.69,5.35,10.4,3.15,2.71,6.81,4.1,11.06,4.03,6.59-.07,11.28-3.15,14.13-9.15h5.93ZM510.24,180.64c-.81-3.88-2.64-7.03-5.49-9.45-2.86-2.42-6.3-3.66-10.33-3.74-4.03-.07-7.54,1.17-10.55,3.59-3,2.42-4.83,5.64-5.64,9.59h32Z"/>
      <path class="st1" d="M557.55,204.73h-5.64v-24.39c0-3.52-1.32-6.52-3.88-9.08-2.56-2.56-5.49-3.81-8.93-3.81s-6.52,1.25-9.08,3.81c-2.56,2.56-3.81,5.57-3.81,9.08v24.39h-5.64v-23.8c0-5.42,1.76-9.89,5.27-13.47,3.52-3.59,7.91-5.42,13.26-5.42s9.67,1.83,13.18,5.42c3.51,3.59,5.27,8.06,5.27,13.47v23.8Z"/>
    </g>
    <rect class="st1" x="205.05" y="174.04" width="5.64" height="13.92" transform="translate(388.88 -26.87) rotate(90)"/>
  </g>
  <polygon class="st5" points="102.09 105.51 67.19 87.96 102.09 205.22 102.09 105.51"/>
  <g>
    <path class="st3" d="M164.98,81.11c.31,1.3.48,2.65.48,4.04,0,9.78-7.93,17.71-17.71,17.71s-17.71-7.93-17.71-17.71c0-6.03,3.02-11.35,7.62-14.55l-22.77,1.3c-1.66,4.09-2.58,8.56-2.58,13.24,0,19.54,15.9,35.43,35.43,35.43s35.43-15.9,35.43-35.43c0-6.12-1.56-11.88-4.3-16.9l-22.8,1.3c4.42,2.37,7.72,6.54,8.89,11.55Z"/>
    <path class="st3" d="M147.75,49.72c-12.27,0-23.1,6.27-29.47,15.78h58.93c-6.36-9.51-17.19-15.78-29.47-15.78Z"/>
    <path class="st4" d="M147.75,49.72c12.27,0,23.1,6.27,29.47,15.78h11.29c-7.32-15.14-22.82-25.59-40.76-25.59s-33.45,10.45-40.76,25.59h11.29c6.36-9.51,17.19-15.78,29.47-15.78Z"/>
    <path class="st0" d="M152.62,74.29c0-.18.04-.35.05-.52-1.51-.65-3.17-1.02-4.92-1.02-6.85,0-12.41,5.56-12.41,12.41s5.56,12.41,12.41,12.41,12.41-5.56,12.41-12.41c0-.98-.13-1.93-.34-2.85-4.04-.43-7.19-3.86-7.19-8.02Z"/>
    <path class="st1" d="M189.48,67.65c-.3-.72-.63-1.44-.97-2.15h-11.29c.6.89,1.15,1.81,1.67,2.75,2.74,5.03,4.3,10.79,4.3,16.9,0,19.54-15.9,35.43-35.43,35.43s-35.43-15.9-35.43-35.43c0-4.68.92-9.15,2.58-13.24.92-2.26,2.05-4.41,3.39-6.41h-11.29c-1.08,2.24-1.98,4.59-2.68,7.02-1.17,4.01-1.8,8.25-1.8,12.64,0,24.99,20.26,45.24,45.24,45.24s45.24-20.26,45.24-45.24c0-6.21-1.25-12.12-3.52-17.51Z"/>
    <path class="st1" d="M164.98,81.11c-1.24.78-2.71,1.24-4.29,1.24-.29,0-.58-.02-.87-.05.22.92.34,1.87.34,2.85,0,6.85-5.56,12.41-12.41,12.41s-12.41-5.56-12.41-12.41,5.56-12.41,12.41-12.41c1.75,0,3.41.37,4.92,1.02.1-1.52.62-2.92,1.45-4.1.19-.27.38-.55.6-.79-2.14-.92-4.5-1.43-6.97-1.43-3.75,0-7.23,1.17-10.09,3.16-4.6,3.2-7.62,8.52-7.62,14.55,0,9.78,7.93,17.71,17.71,17.71s17.71-7.93,17.71-17.71c0-1.39-.18-2.74-.48-4.04Z"/>
    <path class="st1" d="M156.08,69.56c-.45-.24-.89-.48-1.36-.68-.22.24-.41.52-.6.79-.83,1.18-1.35,2.57-1.45,4.1-.01.18-.05.35-.05.52,0,4.16,3.15,7.58,7.19,8.02.29.03.58.05.87.05,1.58,0,3.05-.46,4.29-1.24-1.17-5.01-4.47-9.19-8.89-11.55Z"/>
  </g>
  <polyline class="st8" points="194.8 65.48 54.8 65.51 88.78 205.22 9.38 68.21 176.27 11.6 194.8 65.48"/>
  <g class="st6">
    <path class="st7" d="M177.21,65.5c.6.89,1.15,1.81,1.67,2.75l10.59-.61c-.3-.72-.63-1.44-.97-2.15h-11.29Z"/>
    <path class="st7" d="M118.28,65.5h-11.29c-1.08,2.24-1.97,4.59-2.68,7.02l10.58-.61c.91-2.26,2.05-4.41,3.39-6.41Z"/>
    <path class="st7" d="M154.72,68.88c-2.14-.92-4.5-1.43-6.98-1.43-3.75,0-7.23,1.17-10.09,3.17"/>
  </g>
  <g>
    <path class="st1" d="M112.96,215.8h12.51v1.78h-10.56v5.91h9.44v1.78h-9.44v6.06h10.68v1.78h-12.63v-17.3Z"/>
    <path class="st1" d="M131.7,215.8h1.83l10.9,13.87v-13.87h1.9v17.3h-1.56l-11.17-14.19v14.19h-1.9v-17.3Z"/>
    <path class="st1" d="M159.8,215.68h1.83l7.89,17.43h-2.1l-2.03-4.57h-9.42l-2.05,4.57h-2l7.89-17.43ZM164.62,226.78l-3.93-8.83-3.96,8.83h7.89Z"/>
    <path class="st1" d="M175.1,215.8h7.37c1.98,0,3.53.57,4.52,1.53.72.74,1.11,1.66,1.11,2.77v.05c0,2.25-1.38,3.41-2.74,4.01,2.05.62,3.71,1.8,3.71,4.18v.05c0,2.97-2.5,4.72-6.28,4.72h-7.69v-17.3ZM182.15,223.52c2.35,0,3.98-1.06,3.98-3.09v-.05c0-1.71-1.36-2.82-3.83-2.82h-5.27v5.96h5.12ZM182.84,231.35c2.62,0,4.25-1.16,4.25-3.09v-.05c0-1.88-1.58-2.97-4.6-2.97h-5.46v6.11h5.81Z"/>
    <path class="st1" d="M195.12,215.8h1.95v15.5h9.74v1.8h-11.69v-17.3Z"/>
    <path class="st1" d="M212.77,215.8h1.95v17.3h-1.95v-17.3Z"/>
    <path class="st1" d="M221.97,215.8h1.83l10.9,13.87v-13.87h1.9v17.3h-1.56l-11.17-14.19v14.19h-1.9v-17.3Z"/>
    <path class="st1" d="M242.9,224.5v-.05c0-4.75,3.49-8.95,8.68-8.95,2.92,0,4.72.84,6.45,2.3l-1.26,1.48c-1.34-1.16-2.82-1.98-5.27-1.98-3.83,0-6.58,3.24-6.58,7.09v.05c0,4.13,2.64,7.19,6.85,7.19,1.98,0,3.81-.77,4.99-1.73v-4.3h-5.27v-1.76h7.14v6.9c-1.61,1.43-4.03,2.65-6.95,2.65-5.44,0-8.8-3.96-8.8-8.9Z"/>
    <path class="st1" d="M279.38,217.61h-5.81v-1.81h13.6v1.81h-5.81v15.5h-1.98v-15.5Z"/>
    <path class="st1" d="M291.05,224.5v-.05c0-4.77,3.58-8.95,8.85-8.95s8.8,4.13,8.8,8.9v.05c0,4.77-3.58,8.95-8.85,8.95s-8.8-4.13-8.8-8.9ZM306.67,224.5v-.05c0-3.93-2.87-7.14-6.82-7.14s-6.77,3.16-6.77,7.09v.05c0,3.93,2.87,7.14,6.82,7.14s6.77-3.16,6.77-7.09Z"/>
    <path class="st1" d="M315,215.8h1.98l6.3,9.44,6.3-9.44h1.98v17.3h-1.95v-14.02l-6.3,9.27h-.1l-6.3-9.25v13.99h-1.9v-17.3Z"/>
    <path class="st1" d="M337.86,224.5v-.05c0-4.77,3.58-8.95,8.85-8.95s8.8,4.13,8.8,8.9v.05c0,4.77-3.58,8.95-8.85,8.95s-8.8-4.13-8.8-8.9ZM353.49,224.5v-.05c0-3.93-2.87-7.14-6.82-7.14s-6.77,3.16-6.77,7.09v.05c0,3.93,2.87,7.14,6.82,7.14s6.77-3.16,6.77-7.09Z"/>
    <path class="st1" d="M361.81,215.8h7.44c2.13,0,3.83.64,4.92,1.73.84.84,1.34,2.05,1.34,3.41v.05c0,2.87-1.98,4.55-4.7,5.04l5.32,7.07h-2.4l-5.02-6.72h-4.94v6.72h-1.95v-17.3ZM369.08,224.63c2.6,0,4.45-1.34,4.45-3.56v-.05c0-2.13-1.63-3.41-4.43-3.41h-5.34v7.02h5.32Z"/>
    <path class="st1" d="M381.86,215.8h7.44c2.13,0,3.83.64,4.92,1.73.84.84,1.34,2.05,1.34,3.41v.05c0,2.87-1.98,4.55-4.7,5.04l5.32,7.07h-2.4l-5.02-6.72h-4.94v6.72h-1.95v-17.3ZM389.13,224.63c2.6,0,4.45-1.34,4.45-3.56v-.05c0-2.13-1.63-3.41-4.43-3.41h-5.34v7.02h5.32Z"/>
    <path class="st1" d="M401.14,224.5v-.05c0-4.77,3.59-8.95,8.85-8.95s8.8,4.13,8.8,8.9v.05c0,4.77-3.58,8.95-8.85,8.95s-8.8-4.13-8.8-8.9ZM416.76,224.5v-.05c0-3.93-2.87-7.14-6.82-7.14s-6.77,3.16-6.77,7.09v.05c0,3.93,2.87,7.14,6.82,7.14s6.77-3.16,6.77-7.09Z"/>
    <path class="st1" d="M422.87,215.8h2.12l4.94,14.41,4.75-14.46h1.61l4.75,14.46,4.95-14.41h2.05l-6.18,17.43h-1.66l-4.75-14.04-4.77,14.04h-1.63l-6.18-17.43Z"/>
    <path class="st1" d="M467.9,217.61h-5.81v-1.81h13.6v1.81h-5.81v15.5h-1.98v-15.5Z"/>
    <path class="st1" d="M479.57,224.5v-.05c0-4.77,3.58-8.95,8.85-8.95s8.8,4.13,8.8,8.9v.05c0,4.77-3.58,8.95-8.85,8.95s-8.8-4.13-8.8-8.9ZM495.19,224.5v-.05c0-3.93-2.87-7.14-6.82-7.14s-6.77,3.16-6.77,7.09v.05c0,3.93,2.87,7.14,6.82,7.14s6.77-3.16,6.77-7.09Z"/>
    <path class="st1" d="M503.52,215.8h6.01c5.44,0,9.2,3.73,9.2,8.6v.05c0,4.87-3.76,8.65-9.2,8.65h-6.01v-17.3ZM509.52,231.3c4.38,0,7.17-2.97,7.17-6.8v-.05c0-3.83-2.79-6.85-7.17-6.85h-4.05v13.69h4.05Z"/>
    <path class="st1" d="M530.29,215.68h1.83l7.89,17.43h-2.1l-2.03-4.57h-9.42l-2.05,4.57h-2l7.89-17.43ZM535.11,226.78l-3.93-8.83-3.96,8.83h7.89Z"/>
    <path class="st1" d="M548.28,226.26l-7.19-10.46h2.37l5.83,8.65,5.88-8.65h2.27l-7.19,10.43v6.87h-1.98v-6.85Z"/>
  </g>
</svg>